<svg width="107" height="24" viewBox="0 0 107 24" fill="none" xmlns="http://www.w3.org/2000/svg">
<g clip-path="url(#clip0)">
<path d="M27.804 20.9112V6.0312H22.32V2.6904H37.3368V6.0504H31.8168V20.9304L27.804 20.9112Z" fill="#363545"/>
<path d="M34.056 20.9112V7.85759H38.0208V9.97919H38.0448C38.7648 8.87039 40.0152 7.51678 42.4776 7.51678H42.6V11.04C42.4536 11.0136 41.7624 10.9656 41.5176 10.9656C40.835 10.9724 40.1635 11.1384 39.5564 11.4505C38.9493 11.7626 38.4235 12.2121 38.0208 12.7632V20.9232L34.056 20.9112Z" fill="#363545"/>
<path d="M43.8528 6.00001V2.81281H47.8416V6.00001H43.8528ZM43.8792 20.9208V7.7856H47.8176V20.9112L43.8792 20.9208Z" fill="#363545"/>
<path d="M49.368 20.9112V7.78558H53.3304V9.85439C54.12 8.81999 55.572 7.51678 57.6504 7.51678C59.8416 7.51678 60.876 8.42639 61.2504 9.85439C62.0376 8.84639 63.516 7.51678 65.5704 7.51678C68.2296 7.51678 69.4104 9.19679 69.4104 11.5296V20.9112H65.4456V12.588C65.4456 11.4072 65.1744 10.7904 64.0176 10.7904C63.0336 10.7904 62.244 11.3328 61.3776 12.096V20.9112H57.42V12.588C57.42 11.4072 57.1488 10.7904 55.98 10.7904C54.996 10.7904 54.2088 11.3328 53.3208 12.096V20.9112H49.368Z" fill="#363545"/>
<path d="M74.88 19.3584V20.9112H70.908V2.6904H74.88V9.8064C75.7416 8.6064 76.9728 7.5168 78.9168 7.5168C81.8976 7.5168 83.9568 9.8064 83.9568 14.3352C83.9568 18.864 81.8664 21.12 78.8616 21.12C77.088 21.12 75.8568 20.4672 74.88 19.3584ZM80.0016 14.3616C80.0016 12.1704 79.2384 10.7904 77.4648 10.7904C76.4544 10.7904 75.5448 11.4072 74.88 12.072V16.9224C75.7416 17.7336 76.4544 18.1224 77.52 18.1224C79.1568 18.1272 79.9944 16.7496 79.9944 14.3616H80.0016Z" fill="#363545"/>
<path d="M85.1856 20.9112V2.6904H89.124V20.9112H85.1856Z" fill="#363545"/>
<path d="M90.3528 14.3616C90.3528 9.26398 94.2432 7.51678 96.9504 7.51678C99.6576 7.51678 102.984 8.87998 102.984 14.8296V15.42H94.2912C94.4904 17.58 95.6952 18.4224 97.3464 18.4224C98.7897 18.3796 100.17 17.8211 101.237 16.848L102.763 19.212C101.237 20.5176 99.3408 21.1824 97.0512 21.1824C93.6264 21.1824 90.3528 19.44 90.3528 14.3616ZM99.4392 13.08C99.2424 11.2344 98.4048 10.3464 96.9264 10.3464C95.6952 10.3464 94.6368 11.16 94.3416 13.08H99.4392Z" fill="#363545"/>
<path d="M103.733 19.44C103.731 19.2421 103.768 19.0457 103.843 18.8624C103.917 18.6791 104.028 18.5126 104.168 18.3726C104.308 18.2327 104.474 18.1221 104.658 18.0474C104.841 17.9727 105.037 17.9353 105.235 17.9376C105.532 17.9376 105.823 18.0257 106.07 18.1908C106.317 18.3559 106.51 18.5905 106.623 18.8651C106.737 19.1396 106.767 19.4417 106.709 19.7331C106.651 20.0245 106.508 20.2922 106.298 20.5024C106.087 20.7125 105.82 20.8556 105.528 20.9135C105.237 20.9715 104.935 20.9417 104.66 20.828C104.386 20.7143 104.151 20.5218 103.986 20.2747C103.821 20.0276 103.733 19.7371 103.733 19.44ZM106.464 19.44C106.46 19.1968 106.384 18.9602 106.245 18.7601C106.107 18.56 105.913 18.4053 105.687 18.3154C105.461 18.2255 105.213 18.2044 104.975 18.2548C104.737 18.3052 104.519 18.4248 104.349 18.5986C104.179 18.7725 104.064 18.9927 104.019 19.2317C103.973 19.4707 104 19.7178 104.094 19.9419C104.189 20.1659 104.348 20.357 104.551 20.491C104.754 20.6251 104.992 20.6961 105.235 20.6952C105.399 20.6952 105.561 20.6626 105.712 20.5992C105.862 20.5358 105.999 20.4429 106.114 20.326C106.228 20.2091 106.318 20.0705 106.378 19.9183C106.438 19.7662 106.468 19.6036 106.464 19.44ZM104.652 18.5856H105.266C105.655 18.5856 105.881 18.7536 105.881 19.0896C105.89 19.1926 105.863 19.2956 105.804 19.3807C105.746 19.4658 105.659 19.5275 105.559 19.5552L105.914 20.2296H105.571L105.24 19.6008H104.981V20.2296H104.652V18.5856ZM105.247 19.3488C105.449 19.3488 105.559 19.284 105.559 19.1088C105.559 18.9336 105.449 18.8688 105.24 18.8688H104.981V19.3488H105.247Z" fill="#363545"/>
<path d="M1.4856 18.3384V24L6.4104 21.1584C4.51709 20.7492 2.7968 19.7641 1.4856 18.3384Z" fill="#363545"/>
<path d="M6.37439 2.8176L1.4856 0V5.628C2.79077 4.21495 4.4965 3.23438 6.37439 2.8176Z" fill="#363545"/>
<path d="M22.272 12L17.3496 9.15839C17.9317 11.0121 17.9267 13.0004 17.3352 14.8512L22.272 12Z" fill="#363545"/>
<path d="M4.728 4.3008C5.4336 4.1448 6.9 4.3008 7.6752 4.5144C8.4037 3.99647 9.2704 3.70812 10.164 3.6864C8.3303 3.37485 6.44589 3.58783 4.728 4.3008Z" fill="#363545"/>
<path d="M14.1096 14.6016C13.9882 13.5227 13.7293 12.4637 13.3392 11.4504C11.6592 12.2136 9.5664 11.7216 8.172 10.5144C7.14771 11.5843 6.22906 12.7505 5.4288 13.9968C7.7928 15.924 11.6808 16.4304 14.1096 14.6016Z" fill="#363545"/>
<path d="M4.1352 14.1816C2.052 12.0456 1.3248 8.93281 1.992 6.54001C0.624072 8.15113 -0.0862457 10.2187 0.00272148 12.3303C0.0916887 14.442 0.973401 16.4425 2.472 17.9328C2.85448 16.613 3.41397 15.3512 4.1352 14.1816Z" fill="#363545"/>
<path d="M12.96 10.5456C12.5206 9.6106 11.9554 8.74013 11.28 7.9584C10.4324 8.5162 9.62994 9.13972 8.88 9.8232C10.1424 10.872 11.7936 11.0784 12.96 10.5456Z" fill="#363545"/>
<path d="M11.3928 6.6528C11.9594 6.24224 12.5735 5.90139 13.2216 5.6376C11.8872 4.2888 9.74158 4.3248 8.80798 4.9176C9.76463 5.34002 10.6396 5.92736 11.3928 6.6528Z" fill="#363545"/>
<path d="M4.89599 14.88C3.85919 16.6728 3.47999 18 3.34079 18.6888C4.84263 19.8181 6.67975 20.4113 8.55843 20.3734C10.4371 20.3356 12.2489 19.6689 13.704 18.48C14.0379 17.6131 14.2009 16.6897 14.184 15.7608C11.3136 17.4696 7.35839 16.8168 4.89599 14.88Z" fill="#363545"/>
<path d="M13.776 9.94802C14.6952 8.98802 14.5104 7.34642 13.812 6.40082C13.1975 6.65355 12.6215 6.99124 12.1008 7.40402C12.7596 8.18148 13.3221 9.03566 13.776 9.94802Z" fill="#363545"/>
<path d="M15.36 7.884C15.4343 8.4446 15.3669 9.01488 15.1639 9.54271C14.961 10.0705 14.6291 10.5391 14.1984 10.9056C14.5645 11.8153 14.8325 12.7614 14.9976 13.728C16.2576 12.0912 16.2192 9.7536 15.36 7.884Z" fill="#363545"/>
<path d="M8.19839 9.09601C8.93735 8.41419 9.7268 7.78921 10.56 7.22641C9.80404 6.53726 8.92236 6.00027 7.96319 5.64481C7.18079 6.69361 7.42079 8.04721 8.19839 9.09601Z" fill="#363545"/>
<path d="M15.1488 15.0456C15.1785 15.7576 15.144 16.4709 15.0456 17.1768C16.3431 15.5041 16.9688 13.407 16.8 11.2968C16.6725 12.6929 16.0927 14.0091 15.1488 15.0456Z" fill="#363545"/>
<path d="M6.984 5.3472C5.88735 5.07816 4.74107 5.08558 3.648 5.3688C1.9944 7.7136 2.7624 11.148 4.6872 13.2888C5.50898 12.0384 6.44499 10.867 7.4832 9.7896C6.504 8.5728 6.1152 6.6936 6.984 5.3472Z" fill="#363545"/>
</g>
<defs>
<clipPath id="clip0">
<rect width="106.723" height="24" fill="white"/>
</clipPath>
</defs>
</svg>
